# xmcd CD database file
#
# Track frame offsets:
#	150
#	21075
#	45125
#	69533
#	85873
#	111675
#	138637
#	163977
#	181847
#	204268
#	224641
#
# Disc length: 3462 seconds
#
# Revision: 1
# Processed by: cddbd v1.5.2PL0 Copyright (c) Steve Scherf et al.
# Submitted via: CDex 1.70beta2
#
DISCID=9f0d840b
DTITLE=Tommy Bolin and Friends - Great Gypsy Soul
DYEAR=2012
DGENRE=Blues
TTITLE0=Peter Frampton - The Grind
TTITLE1=Warren Haynes - Teaser
TTITLE2=Myles Kennedy - Nels Cline - Dreamer
TTITLE3=John Scofield - Savannah Woman
TTITLE4=Derek Trucks - Smooth Fandango
TTITLE5=Big Sugar - Gordie Johnson - People, People
TTITLE6=Brad Whitford - Wild Dogs
TTITLE7=Steve Lukather - Homeward Strut
TTITLE8=Glenn Hughes - Sonny Landreth - Sugar Shack
TTITLE9=Steve Morse - Crazed Fandango
TTITLE10=Joe Bonamassa - Glenn Hughes - Nels Cline - Lotus
EXTD=YEAR: 2012
EXTT0=
EXTT1=
EXTT2=
EXTT3=
EXTT4=
EXTT5=
EXTT6=
EXTT7=
EXTT8=
EXTT9=
EXTT10=
PLAYORDER=
